<svg xmlns="http://www.w3.org/2000/svg">
    <symbol id="edile" viewBox="0 0 640 640">
        <path d="M246.9 82.3L271 67.8C292.6 54.8 317.3 48 342.5 48C379.3 48 414.7 62.6 440.7 88.7L504.6 152.6C519.6 167.6 528 188 528 209.2L528 240.1L547.7 259.8L547.7 259.8C563.3 244.2 588.6 244.2 604.3 259.8C620 275.4 619.9 300.7 604.3 316.4L540.3 380.4C524.7 396 499.4 396 483.7 380.4C468 364.8 468.1 339.5 483.7 323.8L464 304L433.1 304C411.9 304 391.5 295.6 376.5 280.6L327.4 231.5C312.4 216.5 304 196.1 304 174.9L304 162.2C304 151 298.1 140.5 288.5 134.8L246.9 109.8C236.5 103.6 236.5 88.6 246.9 82.4zM50.7 466.7L272.8 244.6L363.3 335.1L141.2 557.2C116.2 582.2 75.7 582.2 50.7 557.2C25.7 532.2 25.7 491.7 50.7 466.7z" fill="currentColor" />
    </symbol>
    <symbol id="consulente" viewBox="0 0 640 640">
        <path d="M264 112L376 112C380.4 112 384 115.6 384 120L384 160L256 160L256 120C256 115.6 259.6 112 264 112zM208 120L208 160L128 160C92.7 160 64 188.7 64 224L64 320L576 320L576 224C576 188.7 547.3 160 512 160L432 160L432 120C432 89.1 406.9 64 376 64L264 64C233.1 64 208 89.1 208 120zM576 368L384 368L384 384C384 401.7 369.7 416 352 416L288 416C270.3 416 256 401.7 256 384L256 368L64 368L64 480C64 515.3 92.7 544 128 544L512 544C547.3 544 576 515.3 576 480L576 368z" fill="currentColor" />
    </symbol>
    <symbol id="agenzia" viewBox="0 0 640 640">
        <path d="M256 144C256 117.5 277.5 96 304 96L336 96C362.5 96 384 117.5 384 144L384 496C384 522.5 362.5 544 336 544L304 544C277.5 544 256 522.5 256 496L256 144zM64 336C64 309.5 85.5 288 112 288L144 288C170.5 288 192 309.5 192 336L192 496C192 522.5 170.5 544 144 544L112 544C85.5 544 64 522.5 64 496L64 336zM496 160L528 160C554.5 160 576 181.5 576 208L576 496C576 522.5 554.5 544 528 544L496 544C469.5 544 448 522.5 448 496L448 208C448 181.5 469.5 160 496 160z" fill="currentColor" />
    </symbol>
    <symbol id="circle-check" viewBox="0 0 640 640">
        <path d="M320 576C178.6 576 64 461.4 64 320C64 178.6 178.6 64 320 64C461.4 64 576 178.6 576 320C576 461.4 461.4 576 320 576zM438 209.7C427.3 201.9 412.3 204.3 404.5 215L285.1 379.2L233 327.1C223.6 317.7 208.4 317.7 199.1 327.1C189.8 336.5 189.7 351.7 199.1 361L271.1 433C276.1 438 282.9 440.5 289.9 440C296.9 439.5 303.3 435.9 307.4 430.2L443.3 243.2C451.1 232.5 448.7 217.5 438 209.7z" fill="currentColor" />
    </symbol>
</svg>