<svg xmlns="http://www.w3.org/2000/svg">
    <symbol id="logo" viewBox="0 0 410 410">
        <path d="M410 410H358.364L344.239 376.663L374.15 334.144L410 410ZM173.862 26.5566H296.711C331.391 26.5567 358.108 38.0599 376.861 61.0664C395.871 83.7078 405.376 115.662 405.376 156.928C405.376 200.019 395.871 233.617 376.861 257.719C368.977 267.699 359.684 275.854 348.984 281.955L362.218 308.895L333.077 350.319L308.884 294.294C304.941 294.677 300.884 294.871 296.711 294.871H256.372L283.609 383.443H235.057L208.84 294.703H120.905L143.153 239.926H192.657L141.034 65.1855L89.6221 239.926H119.069L96.8223 294.703H73.5059L47.3965 383.443H0L119.069 0H165.695L173.862 26.5566ZM239.358 239.546H296.711C317.519 239.546 333.575 233.154 344.878 220.373C356.438 207.226 362.218 187.142 362.218 160.118C362.218 134.19 356.438 113.471 344.878 101.055C333.575 88.2733 317.519 81.8819 296.711 81.8818H190.875L239.358 239.546Z" fill="currentColor"/>
    </symbol>
    <symbol id="email" viewBox=" 0 0 1920 1920">
        <path d="M1920 428.266v1189.54l-464.16-580.146-88.203 70.585 468.679 585.904H83.684l468.679-585.904-88.202-70.585L0 1617.805V428.265l959.944 832.441L1920 428.266ZM1919.932 226v52.627l-959.943 832.44L.045 278.628V226h1919.887Z" fill-rule="evenodd" fill="currentColor"/>
    </symbol>
    <symbol id="wa" viewBox="0 0 24 24">
        <path d="M6.014 8.00613C6.12827 7.1024 7.30277 5.87414 8.23488 6.01043L8.23339 6.00894C9.14051 6.18132 9.85859 7.74261 10.2635 8.44465C10.5504 8.95402 10.3641 9.4701 10.0965 9.68787C9.7355 9.97883 9.17099 10.3803 9.28943 10.7834C9.5 11.5 12 14 13.2296 14.7107C13.695 14.9797 14.0325 14.2702 14.3207 13.9067C14.5301 13.6271 15.0466 13.46 15.5548 13.736C16.3138 14.178 17.0288 14.6917 17.69 15.27C18.0202 15.546 18.0977 15.9539 17.8689 16.385C17.4659 17.1443 16.3003 18.1456 15.4542 17.9421C13.9764 17.5868 8 15.27 6.08033 8.55801C5.97237 8.24048 5.99955 8.12044 6.014 8.00613Z" fill="currentColor"/>
        <path fill-rule="evenodd" clip-rule="evenodd" d="M12 23C10.7764 23 10.0994 22.8687 9 22.5L6.89443 23.5528C5.56462 24.2177 4 23.2507 4 21.7639V19.5C1.84655 17.492 1 15.1767 1 12C1 5.92487 5.92487 1 12 1C18.0751 1 23 5.92487 23 12C23 18.0751 18.0751 23 12 23ZM6 18.6303L5.36395 18.0372C3.69087 16.4772 3 14.7331 3 12C3 7.02944 7.02944 3 12 3C16.9706 3 21 7.02944 21 12C21 16.9706 16.9706 21 12 21C11.0143 21 10.552 20.911 9.63595 20.6038L8.84847 20.3397L6 21.7639V18.6303Z" fill="currentColor"/>
    </symbol>
    <symbol id="chevron" viewBox="0 0 640 640">
        <path d="M320 64C178.6 64 64 178.6 64 320C64 461.4 178.6 576 320 576C461.4 576 576 461.4 576 320C576 178.6 461.4 64 320 64zM199 305C189.6 295.6 189.6 280.4 199 271.1C208.4 261.8 223.6 261.7 232.9 271.1L319.9 358.1L406.9 271.1C416.3 261.7 431.5 261.7 440.8 271.1C450.1 280.5 450.2 295.7 440.8 305L337 409C327.6 418.4 312.4 418.4 303.1 409L199 305z" fill="currentColor"/>
    </symbol>
    <symbol id="tg" viewBox="0 0 24 24">
        <path d="M11.944 0A12 12 0 0 0 0 12a12 12 0 0 0 12 12 12 12 0 0 0 12-12A12 12 0 0 0 12 0a12 12 0 0 0-.056 0zm4.962 7.224c.1-.002.321.023.465.14a.506.506 0 0 1 .171.325c.016.093.036.306.02.472-.18 1.898-.962 6.502-1.36 8.627-.168.9-.499 1.201-.82 1.23-.696.065-1.225-.46-1.9-.902-1.056-.693-1.653-1.124-2.678-1.8-1.185-.78-.417-1.21.258-1.91.177-.184 3.247-2.977 3.307-3.23.007-.032.014-.15-.056-.212s-.174-.041-.249-.024c-.106.024-1.793 1.14-5.061 3.345-.48.33-.913.49-1.302.48-.428-.008-1.252-.241-1.865-.44-.752-.245-1.349-.374-1.297-.789.027-.216.325-.437.893-.663 3.498-1.524 5.83-2.529 6.998-3.014 3.332-1.386 4.025-1.627 4.476-1.635z" fill="currentColor" />
    </symbol>
</svg>