<svg xmlns="http://www.w3.org/2000/svg">
    <symbol id="logo" viewBox="0 0 410 410">
        <path d="M410 410H358.364L344.239 376.663L374.15 334.144L410 410ZM173.862 26.5566H296.711C331.391 26.5567 358.108 38.0599 376.861 61.0664C395.871 83.7078 405.376 115.662 405.376 156.928C405.376 200.019 395.871 233.617 376.861 257.719C368.977 267.699 359.684 275.854 348.984 281.955L362.218 308.895L333.077 350.319L308.884 294.294C304.941 294.677 300.884 294.871 296.711 294.871H256.372L283.609 383.443H235.057L208.84 294.703H120.905L143.153 239.926H192.657L141.034 65.1855L89.6221 239.926H119.069L96.8223 294.703H73.5059L47.3965 383.443H0L119.069 0H165.695L173.862 26.5566ZM239.358 239.546H296.711C317.519 239.546 333.575 233.154 344.878 220.373C356.438 207.226 362.218 187.142 362.218 160.118C362.218 134.19 356.438 113.471 344.878 101.055C333.575 88.2733 317.519 81.8819 296.711 81.8818H190.875L239.358 239.546Z" fill="currentColor"/>
    </symbol>
</svg>